ISO-10303-21;
HEADER;
/* Generated by software containing ST-Developer
 * from STEP Tools, Inc. (www.steptools.com) 
 */
/* OPTION: using custom renumber hook */

FILE_DESCRIPTION(
/* description */ ('STEP AP242',
'CAx-IF Rec.Pracs.---Representation and Presentation of Product Manufa
cturing Information (PMI)---4.0---2014-10-13',
'CAx-IF Rec.Pracs.---3D Tessellated Geometry---0.4---2014-09-14','2;1'),

/* implementation_level */ '2;1');

FILE_NAME(
/* name */ '6879c51ccf45ab7439c8b1ed',
/* time_stamp */ '2025-07-18T03:53:00Z',
/* author */ (''),
/* organization */ (''),
/* preprocessor_version */ 'ST-DEVELOPER v20',
/* originating_system */ 'ONSHAPE BY PTC INC, 1.200',
/* authorisation */ '  ');

FILE_SCHEMA (('AP242_MANAGED_MODEL_BASED_3D_ENGINEERING_MIM_LF { 1 0 10303 442 1 1 4 }'));
ENDSEC;

DATA;
#10=SHAPE_REPRESENTATION_RELATIONSHIP('','',#854,#11);
#11=ADVANCED_BREP_SHAPE_REPRESENTATION('',(#852),#1468);
#12=TOROIDAL_SURFACE('',#945,0.0065,0.0015);
#13=TOROIDAL_SURFACE('',#946,0.0065,0.0015);
#14=TOROIDAL_SURFACE('',#947,0.0065,0.0015);
#15=TOROIDAL_SURFACE('',#948,0.00650000000000009,0.0015);
#16=CIRCLE('',#858,0.005);
#17=CIRCLE('',#859,0.005);
#18=CIRCLE('',#860,0.005);
#19=CIRCLE('',#863,0.005);
#20=CIRCLE('',#864,0.005);
#21=CIRCLE('',#865,0.005);
#22=CIRCLE('',#868,0.00499999999999992);
#23=CIRCLE('',#869,0.00499999999999992);
#24=CIRCLE('',#872,0.00499999999999968);
#25=CIRCLE('',#873,0.00499999999999968);
#26=CIRCLE('',#876,0.00500000000000009);
#27=CIRCLE('',#877,0.00500000000000009);
#28=CIRCLE('',#878,0.00500000000000009);
#29=CIRCLE('',#882,0.003);
#30=CIRCLE('',#883,0.003);
#31=CIRCLE('',#886,0.003);
#32=CIRCLE('',#887,0.003);
#33=CIRCLE('',#890,0.00300000000000123);
#34=CIRCLE('',#891,0.00300000000000123);
#35=CIRCLE('',#894,0.00300000000000019);
#36=CIRCLE('',#895,0.00300000000000019);
#37=CIRCLE('',#901,0.003);
#38=CIRCLE('',#902,0.003);
#39=CIRCLE('',#905,0.003);
#40=CIRCLE('',#906,0.003);
#41=CIRCLE('',#908,0.002);
#42=CIRCLE('',#909,0.002);
#43=CIRCLE('',#911,0.002);
#44=CIRCLE('',#912,0.002);
#45=CIRCLE('',#914,0.003);
#46=CIRCLE('',#915,0.003);
#47=CIRCLE('',#917,0.002);
#48=CIRCLE('',#918,0.002);
#49=CIRCLE('',#920,0.002);
#50=CIRCLE('',#921,0.002);
#51=CIRCLE('',#923,0.003);
#52=CIRCLE('',#924,0.003);
#53=CIRCLE('',#926,0.005);
#54=CIRCLE('',#927,0.005);
#55=CIRCLE('',#928,0.005);
#56=CIRCLE('',#930,0.003);
#57=CIRCLE('',#931,0.003);
#58=CIRCLE('',#933,0.003);
#59=CIRCLE('',#934,0.003);
#60=CIRCLE('',#937,0.0065);
#61=CIRCLE('',#938,0.0065);
#62=CIRCLE('',#939,0.0065);
#63=CIRCLE('',#940,0.00650000000000009);
#64=CYLINDRICAL_SURFACE('',#857,0.005);
#65=CYLINDRICAL_SURFACE('',#862,0.005);
#66=CYLINDRICAL_SURFACE('',#867,0.00499999999999992);
#67=CYLINDRICAL_SURFACE('',#871,0.00499999999999968);
#68=CYLINDRICAL_SURFACE('',#875,0.00500000000000009);
#69=CYLINDRICAL_SURFACE('',#881,0.003);
#70=CYLINDRICAL_SURFACE('',#885,0.003);
#71=CYLINDRICAL_SURFACE('',#889,0.00300000000000123);
#72=CYLINDRICAL_SURFACE('',#893,0.00300000000000019);
#73=CYLINDRICAL_SURFACE('',#900,0.003);
#74=CYLINDRICAL_SURFACE('',#904,0.003);
#75=CYLINDRICAL_SURFACE('',#907,0.002);
#76=CYLINDRICAL_SURFACE('',#910,0.002);
#77=CYLINDRICAL_SURFACE('',#913,0.003);
#78=CYLINDRICAL_SURFACE('',#916,0.002);
#79=CYLINDRICAL_SURFACE('',#919,0.002);
#80=CYLINDRICAL_SURFACE('',#922,0.003);
#81=CYLINDRICAL_SURFACE('',#925,0.005);
#82=CYLINDRICAL_SURFACE('',#929,0.003);
#83=CYLINDRICAL_SURFACE('',#932,0.003);
#84=B_SPLINE_CURVE_WITH_KNOTS('',3,(#1199,#1200,#1201,#1202,#1203),
 .UNSPECIFIED.,.F.,.F.,(4,1,4),(0.,0.00222744170352836,0.00445488340705671),
 .UNSPECIFIED.);
#85=B_SPLINE_CURVE_WITH_KNOTS('',3,(#1211,#1212,#1213,#1214,#1215),
 .UNSPECIFIED.,.F.,.F.,(4,1,4),(1.1242011608519E-16,0.00222744170352855,
0.00445488340705699),.UNSPECIFIED.);
#86=B_SPLINE_CURVE_WITH_KNOTS('',3,(#1225,#1226,#1227,#1228,#1229),
 .UNSPECIFIED.,.F.,.F.,(4,1,4),(0.,0.00222744170352851,0.00445488340705702),
 .UNSPECIFIED.);
#87=B_SPLINE_CURVE_WITH_KNOTS('',3,(#1233,#1234,#1235,#1236,#1237),
 .UNSPECIFIED.,.F.,.F.,(4,1,4),(0.,0.00222744170352842,0.00445488340705683),
 .UNSPECIFIED.);
#88=B_SPLINE_CURVE_WITH_KNOTS('',3,(#1251,#1252,#1253,#1254,#1255),
 .UNSPECIFIED.,.F.,.F.,(4,1,4),(0.,0.00222744170352854,0.00445488340705707),
 .UNSPECIFIED.);
#89=B_SPLINE_CURVE_WITH_KNOTS('',3,(#1283,#1284,#1285,#1286,#1287),
 .UNSPECIFIED.,.F.,.F.,(4,1,4),(0.,0.00222744170352839,0.00445488340705678),
 .UNSPECIFIED.);
#90=B_SPLINE_CURVE_WITH_KNOTS('',3,(#1301,#1302,#1303,#1304,#1305),
 .UNSPECIFIED.,.F.,.F.,(4,1,4),(0.,0.00222744170352869,0.00445488340705738),
 .UNSPECIFIED.);
#91=B_SPLINE_CURVE_WITH_KNOTS('',3,(#1309,#1310,#1311,#1312,#1313),
 .UNSPECIFIED.,.F.,.F.,(4,1,4),(0.,0.00222744170352842,0.00445488340705683),
 .UNSPECIFIED.);
#92=ORIENTED_EDGE('',*,*,#318,.F.);
#93=ORIENTED_EDGE('',*,*,#319,.T.);
#94=ORIENTED_EDGE('',*,*,#320,.F.);
#95=ORIENTED_EDGE('',*,*,#321,.T.);
#96=ORIENTED_EDGE('',*,*,#322,.T.);
#97=ORIENTED_EDGE('',*,*,#323,.T.);
#98=ORIENTED_EDGE('',*,*,#320,.T.);
#99=ORIENTED_EDGE('',*,*,#324,.T.);
#100=ORIENTED_EDGE('',*,*,#325,.F.);
#101=ORIENTED_EDGE('',*,*,#326,.F.);
#102=ORIENTED_EDGE('',*,*,#327,.T.);
#103=ORIENTED_EDGE('',*,*,#325,.T.);
#104=ORIENTED_EDGE('',*,*,#328,.T.);
#105=ORIENTED_EDGE('',*,*,#329,.T.);
#106=ORIENTED_EDGE('',*,*,#330,.T.);
#107=ORIENTED_EDGE('',*,*,#331,.F.);
#108=ORIENTED_EDGE('',*,*,#332,.F.);
#109=ORIENTED_EDGE('',*,*,#331,.T.);
#110=ORIENTED_EDGE('',*,*,#333,.T.);
#111=ORIENTED_EDGE('',*,*,#334,.F.);
#112=ORIENTED_EDGE('',*,*,#335,.F.);
#113=ORIENTED_EDGE('',*,*,#336,.T.);
#114=ORIENTED_EDGE('',*,*,#334,.T.);
#115=ORIENTED_EDGE('',*,*,#337,.T.);
#116=ORIENTED_EDGE('',*,*,#338,.T.);
#117=ORIENTED_EDGE('',*,*,#339,.F.);
#118=ORIENTED_EDGE('',*,*,#340,.F.);
#119=ORIENTED_EDGE('',*,*,#341,.T.);
#120=ORIENTED_EDGE('',*,*,#342,.F.);
#121=ORIENTED_EDGE('',*,*,#343,.F.);
#122=ORIENTED_EDGE('',*,*,#339,.T.);
#123=ORIENTED_EDGE('',*,*,#344,.F.);
#124=ORIENTED_EDGE('',*,*,#345,.F.);
#125=ORIENTED_EDGE('',*,*,#346,.T.);
#126=ORIENTED_EDGE('',*,*,#342,.T.);
#127=ORIENTED_EDGE('',*,*,#347,.T.);
#128=ORIENTED_EDGE('',*,*,#348,.F.);
#129=ORIENTED_EDGE('',*,*,#349,.F.);
#130=ORIENTED_EDGE('',*,*,#345,.T.);
#131=ORIENTED_EDGE('',*,*,#350,.T.);
#132=ORIENTED_EDGE('',*,*,#351,.T.);
#133=ORIENTED_EDGE('',*,*,#352,.F.);
#134=ORIENTED_EDGE('',*,*,#353,.F.);
#135=ORIENTED_EDGE('',*,*,#348,.T.);
#136=ORIENTED_EDGE('',*,*,#352,.T.);
#137=ORIENTED_EDGE('',*,*,#354,.T.);
#138=ORIENTED_EDGE('',*,*,#355,.F.);
#139=ORIENTED_EDGE('',*,*,#356,.F.);
#140=ORIENTED_EDGE('',*,*,#357,.T.);
#141=ORIENTED_EDGE('',*,*,#355,.T.);
#142=ORIENTED_EDGE('',*,*,#358,.T.);
#143=ORIENTED_EDGE('',*,*,#359,.T.);
#144=ORIENTED_EDGE('',*,*,#360,.T.);
#145=ORIENTED_EDGE('',*,*,#361,.F.);
#146=ORIENTED_EDGE('',*,*,#362,.F.);
#147=ORIENTED_EDGE('',*,*,#363,.F.);
#148=ORIENTED_EDGE('',*,*,#364,.F.);
#149=ORIENTED_EDGE('',*,*,#365,.T.);
#150=ORIENTED_EDGE('',*,*,#366,.T.);
#151=ORIENTED_EDGE('',*,*,#367,.F.);
#152=ORIENTED_EDGE('',*,*,#368,.F.);
#153=ORIENTED_EDGE('',*,*,#369,.T.);
#154=ORIENTED_EDGE('',*,*,#364,.T.);
#155=ORIENTED_EDGE('',*,*,#370,.F.);
#156=ORIENTED_EDGE('',*,*,#371,.F.);
#157=ORIENTED_EDGE('',*,*,#372,.T.);
#158=ORIENTED_EDGE('',*,*,#368,.T.);
#159=ORIENTED_EDGE('',*,*,#373,.F.);
#160=ORIENTED_EDGE('',*,*,#374,.F.);
#161=ORIENTED_EDGE('',*,*,#375,.T.);
#162=ORIENTED_EDGE('',*,*,#371,.T.);
#163=ORIENTED_EDGE('',*,*,#376,.F.);
#164=ORIENTED_EDGE('',*,*,#377,.F.);
#165=ORIENTED_EDGE('',*,*,#378,.T.);
#166=ORIENTED_EDGE('',*,*,#374,.T.);
#167=ORIENTED_EDGE('',*,*,#379,.F.);
#168=ORIENTED_EDGE('',*,*,#380,.F.);
#169=ORIENTED_EDGE('',*,*,#381,.T.);
#170=ORIENTED_EDGE('',*,*,#377,.T.);
#171=ORIENTED_EDGE('',*,*,#382,.T.);
#172=ORIENTED_EDGE('',*,*,#383,.F.);
#173=ORIENTED_EDGE('',*,*,#384,.F.);
#174=ORIENTED_EDGE('',*,*,#380,.T.);
#175=ORIENTED_EDGE('',*,*,#385,.F.);
#176=ORIENTED_EDGE('',*,*,#386,.F.);
#177=ORIENTED_EDGE('',*,*,#387,.T.);
#178=ORIENTED_EDGE('',*,*,#383,.T.);
#179=ORIENTED_EDGE('',*,*,#388,.T.);
#180=ORIENTED_EDGE('',*,*,#389,.F.);
#181=ORIENTED_EDGE('',*,*,#390,.F.);
#182=ORIENTED_EDGE('',*,*,#386,.T.);
#183=ORIENTED_EDGE('',*,*,#391,.F.);
#184=ORIENTED_EDGE('',*,*,#392,.F.);
#185=ORIENTED_EDGE('',*,*,#393,.T.);
#186=ORIENTED_EDGE('',*,*,#389,.T.);
#187=ORIENTED_EDGE('',*,*,#394,.F.);
#188=ORIENTED_EDGE('',*,*,#395,.F.);
#189=ORIENTED_EDGE('',*,*,#396,.T.);
#190=ORIENTED_EDGE('',*,*,#392,.T.);
#191=ORIENTED_EDGE('',*,*,#397,.T.);
#192=ORIENTED_EDGE('',*,*,#398,.F.);
#193=ORIENTED_EDGE('',*,*,#399,.F.);
#194=ORIENTED_EDGE('',*,*,#395,.T.);
#195=ORIENTED_EDGE('',*,*,#400,.F.);
#196=ORIENTED_EDGE('',*,*,#401,.F.);
#197=ORIENTED_EDGE('',*,*,#402,.T.);
#198=ORIENTED_EDGE('',*,*,#398,.T.);
#199=ORIENTED_EDGE('',*,*,#403,.T.);
#200=ORIENTED_EDGE('',*,*,#404,.F.);
#201=ORIENTED_EDGE('',*,*,#405,.F.);
#202=ORIENTED_EDGE('',*,*,#401,.T.);
#203=ORIENTED_EDGE('',*,*,#406,.T.);
#204=ORIENTED_EDGE('',*,*,#407,.F.);
#205=ORIENTED_EDGE('',*,*,#408,.T.);
#206=ORIENTED_EDGE('',*,*,#409,.F.);
#207=ORIENTED_EDGE('',*,*,#410,.T.);
#208=ORIENTED_EDGE('',*,*,#411,.F.);
#209=ORIENTED_EDGE('',*,*,#412,.T.);
#210=ORIENTED_EDGE('',*,*,#413,.F.);
#211=ORIENTED_EDGE('',*,*,#414,.T.);
#212=ORIENTED_EDGE('',*,*,#415,.F.);
#213=ORIENTED_EDGE('',*,*,#416,.T.);
#214=ORIENTED_EDGE('',*,*,#417,.F.);
#215=ORIENTED_EDGE('',*,*,#418,.T.);
#216=ORIENTED_EDGE('',*,*,#419,.F.);
#217=ORIENTED_EDGE('',*,*,#361,.T.);
#218=ORIENTED_EDGE('',*,*,#420,.T.);
#219=ORIENTED_EDGE('',*,*,#322,.F.);
#220=ORIENTED_EDGE('',*,*,#421,.F.);
#221=ORIENTED_EDGE('',*,*,#422,.T.);
#222=ORIENTED_EDGE('',*,*,#423,.F.);
#223=ORIENTED_EDGE('',*,*,#366,.F.);
#224=ORIENTED_EDGE('',*,*,#424,.T.);
#225=ORIENTED_EDGE('',*,*,#404,.T.);
#226=ORIENTED_EDGE('',*,*,#425,.T.);
#227=ORIENTED_EDGE('',*,*,#426,.F.);
#228=ORIENTED_EDGE('',*,*,#365,.F.);
#229=ORIENTED_EDGE('',*,*,#369,.F.);
#230=ORIENTED_EDGE('',*,*,#372,.F.);
#231=ORIENTED_EDGE('',*,*,#375,.F.);
#232=ORIENTED_EDGE('',*,*,#378,.F.);
#233=ORIENTED_EDGE('',*,*,#381,.F.);
#234=ORIENTED_EDGE('',*,*,#384,.T.);
#235=ORIENTED_EDGE('',*,*,#387,.F.);
#236=ORIENTED_EDGE('',*,*,#390,.T.);
#237=ORIENTED_EDGE('',*,*,#393,.F.);
#238=ORIENTED_EDGE('',*,*,#396,.F.);
#239=ORIENTED_EDGE('',*,*,#399,.T.);
#240=ORIENTED_EDGE('',*,*,#402,.F.);
#241=ORIENTED_EDGE('',*,*,#405,.T.);
#242=ORIENTED_EDGE('',*,*,#424,.F.);
#243=ORIENTED_EDGE('',*,*,#321,.F.);
#244=ORIENTED_EDGE('',*,*,#326,.T.);
#245=ORIENTED_EDGE('',*,*,#332,.T.);
#246=ORIENTED_EDGE('',*,*,#335,.T.);
#247=ORIENTED_EDGE('',*,*,#340,.T.);
#248=ORIENTED_EDGE('',*,*,#343,.T.);
#249=ORIENTED_EDGE('',*,*,#346,.F.);
#250=ORIENTED_EDGE('',*,*,#349,.T.);
#251=ORIENTED_EDGE('',*,*,#353,.T.);
#252=ORIENTED_EDGE('',*,*,#356,.T.);
#253=ORIENTED_EDGE('',*,*,#362,.T.);
#254=ORIENTED_EDGE('',*,*,#421,.T.);
#255=ORIENTED_EDGE('',*,*,#418,.F.);
#256=ORIENTED_EDGE('',*,*,#416,.F.);
#257=ORIENTED_EDGE('',*,*,#414,.F.);
#258=ORIENTED_EDGE('',*,*,#412,.F.);
#259=ORIENTED_EDGE('',*,*,#410,.F.);
#260=ORIENTED_EDGE('',*,*,#408,.F.);
#261=ORIENTED_EDGE('',*,*,#406,.F.);
#262=ORIENTED_EDGE('',*,*,#425,.F.);
#263=ORIENTED_EDGE('',*,*,#363,.T.);
#264=ORIENTED_EDGE('',*,*,#423,.T.);
#265=ORIENTED_EDGE('',*,*,#403,.F.);
#266=ORIENTED_EDGE('',*,*,#400,.T.);
#267=ORIENTED_EDGE('',*,*,#397,.F.);
#268=ORIENTED_EDGE('',*,*,#394,.T.);
#269=ORIENTED_EDGE('',*,*,#391,.T.);
#270=ORIENTED_EDGE('',*,*,#388,.F.);
#271=ORIENTED_EDGE('',*,*,#385,.T.);
#272=ORIENTED_EDGE('',*,*,#382,.F.);
#273=ORIENTED_EDGE('',*,*,#379,.T.);
#274=ORIENTED_EDGE('',*,*,#376,.T.);
#275=ORIENTED_EDGE('',*,*,#373,.T.);
#276=ORIENTED_EDGE('',*,*,#370,.T.);
#277=ORIENTED_EDGE('',*,*,#367,.T.);
#278=ORIENTED_EDGE('',*,*,#338,.F.);
#279=ORIENTED_EDGE('',*,*,#427,.T.);
#280=ORIENTED_EDGE('',*,*,#329,.F.);
#281=ORIENTED_EDGE('',*,*,#428,.T.);
#282=ORIENTED_EDGE('',*,*,#318,.T.);
#283=ORIENTED_EDGE('',*,*,#429,.T.);
#284=ORIENTED_EDGE('',*,*,#359,.F.);
#285=ORIENTED_EDGE('',*,*,#430,.T.);
#286=ORIENTED_EDGE('',*,*,#350,.F.);
#287=ORIENTED_EDGE('',*,*,#347,.F.);
#288=ORIENTED_EDGE('',*,*,#344,.T.);
#289=ORIENTED_EDGE('',*,*,#341,.F.);
#290=ORIENTED_EDGE('',*,*,#417,.T.);
#291=ORIENTED_EDGE('',*,*,#415,.T.);
#292=ORIENTED_EDGE('',*,*,#411,.T.);
#293=ORIENTED_EDGE('',*,*,#409,.T.);
#294=ORIENTED_EDGE('',*,*,#407,.T.);
#295=ORIENTED_EDGE('',*,*,#422,.F.);
#296=ORIENTED_EDGE('',*,*,#413,.T.);
#297=ORIENTED_EDGE('',*,*,#357,.F.);
#298=ORIENTED_EDGE('',*,*,#426,.T.);
#299=ORIENTED_EDGE('',*,*,#336,.F.);
#300=ORIENTED_EDGE('',*,*,#419,.T.);
#301=ORIENTED_EDGE('',*,*,#327,.F.);
#302=ORIENTED_EDGE('',*,*,#337,.F.);
#303=ORIENTED_EDGE('',*,*,#333,.F.);
#304=ORIENTED_EDGE('',*,*,#330,.F.);
#305=ORIENTED_EDGE('',*,*,#427,.F.);
#306=ORIENTED_EDGE('',*,*,#328,.F.);
#307=ORIENTED_EDGE('',*,*,#324,.F.);
#308=ORIENTED_EDGE('',*,*,#319,.F.);
#309=ORIENTED_EDGE('',*,*,#428,.F.);
#310=ORIENTED_EDGE('',*,*,#323,.F.);
#311=ORIENTED_EDGE('',*,*,#420,.F.);
#312=ORIENTED_EDGE('',*,*,#360,.F.);
#313=ORIENTED_EDGE('',*,*,#429,.F.);
#314=ORIENTED_EDGE('',*,*,#358,.F.);
#315=ORIENTED_EDGE('',*,*,#354,.F.);
#316=ORIENTED_EDGE('',*,*,#351,.F.);
#317=ORIENTED_EDGE('',*,*,#430,.F.);
#318=EDGE_CURVE('',#431,#432,#513,.T.);
#319=EDGE_CURVE('',#431,#433,#84,.T.);
#320=EDGE_CURVE('',#434,#433,#514,.T.);
#321=EDGE_CURVE('',#434,#435,#515,.T.);
#322=EDGE_CURVE('',#435,#436,#516,.T.);
#323=EDGE_CURVE('',#436,#432,#85,.F.);
#324=EDGE_CURVE('',#433,#437,#16,.F.);
#325=EDGE_CURVE('',#438,#437,#517,.T.);
#326=EDGE_CURVE('',#434,#438,#17,.T.);
#327=EDGE_CURVE('',#439,#439,#18,.T.);
#328=EDGE_CURVE('',#437,#440,#86,.F.);
#329=EDGE_CURVE('',#440,#441,#518,.T.);
#330=EDGE_CURVE('',#441,#442,#87,.T.);
#331=EDGE_CURVE('',#443,#442,#519,.T.);
#332=EDGE_CURVE('',#438,#443,#520,.T.);
#333=EDGE_CURVE('',#442,#444,#19,.F.);
#334=EDGE_CURVE('',#445,#444,#521,.T.);
#335=EDGE_CURVE('',#443,#445,#20,.T.);
#336=EDGE_CURVE('',#446,#446,#21,.T.);
#337=EDGE_CURVE('',#444,#447,#88,.F.);
#338=EDGE_CURVE('',#447,#448,#522,.T.);
#339=EDGE_CURVE('',#449,#448,#523,.T.);
#340=EDGE_CURVE('',#445,#449,#524,.T.);
#341=EDGE_CURVE('',#448,#450,#22,.T.);
#342=EDGE_CURVE('',#451,#450,#525,.T.);
#343=EDGE_CURVE('',#449,#451,#23,.T.);
#344=EDGE_CURVE('',#452,#450,#526,.T.);
#345=EDGE_CURVE('',#453,#452,#527,.T.);
#346=EDGE_CURVE('',#453,#451,#528,.T.);
#347=EDGE_CURVE('',#452,#454,#24,.T.);
#348=EDGE_CURVE('',#455,#454,#529,.T.);
#349=EDGE_CURVE('',#453,#455,#25,.T.);
#350=EDGE_CURVE('',#454,#456,#530,.T.);
#351=EDGE_CURVE('',#456,#457,#89,.T.);
#352=EDGE_CURVE('',#458,#457,#531,.T.);
#353=EDGE_CURVE('',#455,#458,#532,.T.);
#354=EDGE_CURVE('',#457,#459,#26,.F.);
#355=EDGE_CURVE('',#460,#459,#533,.T.);
#356=EDGE_CURVE('',#458,#460,#27,.T.);
#357=EDGE_CURVE('',#461,#461,#28,.T.);
#358=EDGE_CURVE('',#459,#462,#90,.F.);
#359=EDGE_CURVE('',#462,#463,#534,.T.);
#360=EDGE_CURVE('',#463,#464,#91,.T.);
#361=EDGE_CURVE('',#465,#464,#535,.T.);
#362=EDGE_CURVE('',#460,#465,#536,.T.);
#363=EDGE_CURVE('',#466,#467,#537,.T.);
#364=EDGE_CURVE('',#468,#466,#538,.T.);
#365=EDGE_CURVE('',#468,#469,#539,.T.);
#366=EDGE_CURVE('',#469,#467,#540,.T.);
#367=EDGE_CURVE('',#470,#466,#29,.T.);
#368=EDGE_CURVE('',#471,#470,#541,.T.);
#369=EDGE_CURVE('',#471,#468,#30,.T.);
#370=EDGE_CURVE('',#472,#470,#542,.T.);
#371=EDGE_CURVE('',#473,#472,#543,.T.);
#372=EDGE_CURVE('',#473,#471,#544,.T.);
#373=EDGE_CURVE('',#474,#472,#31,.T.);
#374=EDGE_CURVE('',#475,#474,#545,.T.);
#375=EDGE_CURVE('',#475,#473,#32,.T.);
#376=EDGE_CURVE('',#476,#474,#546,.T.);
#377=EDGE_CURVE('',#477,#476,#547,.T.);
#378=EDGE_CURVE('',#477,#475,#548,.T.);
#379=EDGE_CURVE('',#478,#476,#33,.T.);
#380=EDGE_CURVE('',#479,#478,#549,.T.);
#381=EDGE_CURVE('',#479,#477,#34,.T.);
#382=EDGE_CURVE('',#478,#480,#550,.T.);
#383=EDGE_CURVE('',#481,#480,#551,.T.);
#384=EDGE_CURVE('',#479,#481,#552,.T.);
#385=EDGE_CURVE('',#482,#480,#35,.T.);
#386=EDGE_CURVE('',#483,#482,#553,.T.);
#387=EDGE_CURVE('',#483,#481,#36,.T.);
#388=EDGE_CURVE('',#482,#484,#554,.T.);
#389=EDGE_CURVE('',#485,#484,#555,.T.);
#390=EDGE_CURVE('',#483,#485,#556,.T.);
#391=EDGE_CURVE('',#486,#484,#557,.T.);
#392=EDGE_CURVE('',#487,#486,#558,.T.);
#393=EDGE_CURVE('',#487,#485,#559,.T.);
#394=EDGE_CURVE('',#488,#486,#560,.T.);
#395=EDGE_CURVE('',#489,#488,#561,.T.);
#396=EDGE_CURVE('',#489,#487,#562,.T.);
#397=EDGE_CURVE('',#488,#490,#563,.T.);
#398=EDGE_CURVE('',#491,#490,#564,.T.);
#399=EDGE_CURVE('',#489,#491,#565,.T.);
#400=EDGE_CURVE('',#492,#490,#37,.T.);
#401=EDGE_CURVE('',#493,#492,#566,.T.);
#402=EDGE_CURVE('',#493,#491,#38,.T.);
#403=EDGE_CURVE('',#492,#494,#567,.T.);
#404=EDGE_CURVE('',#495,#494,#568,.T.);
#405=EDGE_CURVE('',#493,#495,#569,.T.);
#406=EDGE_CURVE('',#496,#496,#39,.T.);
#407=EDGE_CURVE('',#497,#497,#40,.T.);
#408=EDGE_CURVE('',#498,#498,#41,.T.);
#409=EDGE_CURVE('',#499,#499,#42,.T.);
#410=EDGE_CURVE('',#500,#500,#43,.T.);
#411=EDGE_CURVE('',#501,#501,#44,.T.);
#412=EDGE_CURVE('',#502,#502,#45,.T.);
#413=EDGE_CURVE('',#503,#503,#46,.T.);
#414=EDGE_CURVE('',#504,#504,#47,.T.);
#415=EDGE_CURVE('',#505,#505,#48,.T.);
#416=EDGE_CURVE('',#506,#506,#49,.T.);
#417=EDGE_CURVE('',#507,#507,#50,.T.);
#418=EDGE_CURVE('',#508,#508,#51,.T.);
#419=EDGE_CURVE('',#509,#509,#52,.T.);
#420=EDGE_CURVE('',#464,#436,#53,.F.);
#421=EDGE_CURVE('',#465,#435,#54,.T.);
#422=EDGE_CURVE('',#510,#510,#55,.T.);
#423=EDGE_CURVE('',#467,#494,#56,.T.);
#424=EDGE_CURVE('',#469,#495,#57,.T.);
#425=EDGE_CURVE('',#511,#511,#58,.T.);
#426=EDGE_CURVE('',#512,#512,#59,.T.);
#427=EDGE_CURVE('',#447,#441,#60,.T.);
#428=EDGE_CURVE('',#440,#431,#61,.T.);
#429=EDGE_CURVE('',#432,#463,#62,.T.);
#430=EDGE_CURVE('',#462,#456,#63,.T.);
#431=VERTEX_POINT('',#1197);
#432=VERTEX_POINT('',#1198);
#433=VERTEX_POINT('',#1204);
#434=VERTEX_POINT('',#1206);
#435=VERTEX_POINT('',#1208);
#436=VERTEX_POINT('',#1210);
#437=VERTEX_POINT('',#1218);
#438=VERTEX_POINT('',#1220);
#439=VERTEX_POINT('',#1223);
#440=VERTEX_POINT('',#1230);
#441=VERTEX_POINT('',#1232);
#442=VERTEX_POINT('',#1238);
#443=VERTEX_POINT('',#1240);
#444=VERTEX_POINT('',#1244);
#445=VERTEX_POINT('',#1246);
#446=VERTEX_POINT('',#1249);
#447=VERTEX_POINT('',#1256);
#448=VERTEX_POINT('',#1258);
#449=VERTEX_POINT('',#1260);
#450=VERTEX_POINT('',#1264);
#451=VERTEX_POINT('',#1266);
#452=VERTEX_POINT('',#1270);
#453=VERTEX_POINT('',#1272);
#454=VERTEX_POINT('',#1276);
#455=VERTEX_POINT('',#1278);
#456=VERTEX_POINT('',#1282);
#457=VERTEX_POINT('',#1288);
#458=VERTEX_POINT('',#1290);
#459=VERTEX_POINT('',#1294);
#460=VERTEX_POINT('',#1296);
#461=VERTEX_POINT('',#1299);
#462=VERTEX_POINT('',#1306);
#463=VERTEX_POINT('',#1308);
#464=VERTEX_POINT('',#1314);
#465=VERTEX_POINT('',#1316);
#466=VERTEX_POINT('',#1320);
#467=VERTEX_POINT('',#1321);
#468=VERTEX_POINT('',#1323);
#469=VERTEX_POINT('',#1325);
#470=VERTEX_POINT('',#1329);
#471=VERTEX_POINT('',#1331);
#472=VERTEX_POINT('',#1335);
#473=VERTEX_POINT('',#1337);
#474=VERTEX_POINT('',#1341);
#475=VERTEX_POINT('',#1343);
#476=VERTEX_POINT('',#1347);
#477=VERTEX_POINT('',#1349);
#478=VERTEX_POINT('',#1353);
#479=VERTEX_POINT('',#1355);
#480=VERTEX_POINT('',#1359);
#481=VERTEX_POINT('',#1361);
#482=VERTEX_POINT('',#1365);
#483=VERTEX_POINT('',#1367);
#484=VERTEX_POINT('',#1371);
#485=VERTEX_POINT('',#1373);
#486=VERTEX_POINT('',#1377);
#487=VERTEX_POINT('',#1379);
#488=VERTEX_POINT('',#1383);
#489=VERTEX_POINT('',#1385);
#490=VERTEX_POINT('',#1389);
#491=VERTEX_POINT('',#1391);
#492=VERTEX_POINT('',#1395);
#493=VERTEX_POINT('',#1397);
#494=VERTEX_POINT('',#1401);
#495=VERTEX_POINT('',#1403);
#496=VERTEX_POINT('',#1407);
#497=VERTEX_POINT('',#1409);
#498=VERTEX_POINT('',#1412);
#499=VERTEX_POINT('',#1414);
#500=VERTEX_POINT('',#1417);
#501=VERTEX_POINT('',#1419);
#502=VERTEX_POINT('',#1422);
#503=VERTEX_POINT('',#1424);
#504=VERTEX_POINT('',#1427);
#505=VERTEX_POINT('',#1429);
#506=VERTEX_POINT('',#1432);
#507=VERTEX_POINT('',#1434);
#508=VERTEX_POINT('',#1437);
#509=VERTEX_POINT('',#1439);
#510=VERTEX_POINT('',#1444);
#511=VERTEX_POINT('',#1450);
#512=VERTEX_POINT('',#1452);
#513=LINE('',#1196,#570);
#514=LINE('',#1205,#571);
#515=LINE('',#1207,#572);
#516=LINE('',#1209,#573);
#517=LINE('',#1219,#574);
#518=LINE('',#1231,#575);
#519=LINE('',#1239,#576);
#520=LINE('',#1241,#577);
#521=LINE('',#1245,#578);
#522=LINE('',#1257,#579);
#523=LINE('',#1259,#580);
#524=LINE('',#1261,#581);
#525=LINE('',#1265,#582);
#526=LINE('',#1269,#583);
#527=LINE('',#1271,#584);
#528=LINE('',#1273,#585);
#529=LINE('',#1277,#586);
#530=LINE('',#1281,#587);
#531=LINE('',#1289,#588);
#532=LINE('',#1291,#589);
#533=LINE('',#1295,#590);
#534=LINE('',#1307,#591);
#535=LINE('',#1315,#592);
#536=LINE('',#1317,#593);
#537=LINE('',#1319,#594);
#538=LINE('',#1322,#595);
#539=LINE('',#1324,#596);
#540=LINE('',#1326,#597);
#541=LINE('',#1330,#598);
#542=LINE('',#1334,#599);
#543=LINE('',#1336,#600);
#544=LINE('',#1338,#601);
#545=LINE('',#1342,#602);
#546=LINE('',#1346,#603);
#547=LINE('',#1348,#604);
#548=LINE('',#1350,#605);
#549=LINE('',#1354,#606);
#550=LINE('',#1358,#607);
#551=LINE('',#1360,#608);
#552=LINE('',#1362,#609);
#553=LINE('',#1366,#610);
#554=LINE('',#1370,#611);
#555=LINE('',#1372,#612);
#556=LINE('',#1374,#613);
#557=LINE('',#1376,#614);
#558=LINE('',#1378,#615);
#559=LINE('',#1380,#616);
#560=LINE('',#1382,#617);
#561=LINE('',#1384,#618);
#562=LINE('',#1386,#619);
#563=LINE('',#1388,#620);
#564=LINE('',#1390,#621);
#565=LINE('',#1392,#622);
#566=LINE('',#1396,#623);
#567=LINE('',#1400,#624);
#568=LINE('',#1402,#625);
#569=LINE('',#1404,#626);
#570=VECTOR('',#953,1.);
#571=VECTOR('',#954,1.);
#572=VECTOR('',#955,1.);
#573=VECTOR('',#956,1.);
#574=VECTOR('',#961,1.);
#575=VECTOR('',#968,1.);
#576=VECTOR('',#969,1.);
#577=VECTOR('',#970,1.);
#578=VECTOR('',#975,1.);
#579=VECTOR('',#982,1.);
#580=VECTOR('',#983,1.);
#581=VECTOR('',#984,1.);
#582=VECTOR('',#989,1.);
#583=VECTOR('',#994,1.);
#584=VECTOR('',#995,1.);
#585=VECTOR('',#996,1.);
#586=VECTOR('',#1001,1.);
#587=VECTOR('',#1006,1.);
#588=VECTOR('',#1007,1.);
#589=VECTOR('',#1008,1.);
#590=VECTOR('',#1013,1.);
#591=VECTOR('',#1020,1.);
#592=VECTOR('',#1021,1.);
#593=VECTOR('',#1022,1.);
#594=VECTOR('',#1025,1.);
#595=VECTOR('',#1026,1.);
#596=VECTOR('',#1027,1.);
#597=VECTOR('',#1028,1.);
#598=VECTOR('',#1033,1.);
#599=VECTOR('',#1038,1.);
#600=VECTOR('',#1039,1.);
#601=VECTOR('',#1040,1.);
#602=VECTOR('',#1045,1.);
#603=VECTOR('',#1050,1.);
#604=VECTOR('',#1051,1.);
#605=VECTOR('',#1052,1.);
#606=VECTOR('',#1057,1.);
#607=VECTOR('',#1062,1.);
#608=VECTOR('',#1063,1.);
#609=VECTOR('',#1064,1.);
#610=VECTOR('',#1069,1.);
#611=VECTOR('',#1074,1.);
#612=VECTOR('',#1075,1.);
#613=VECTOR('',#1076,1.);
#614=VECTOR('',#1079,1.);
#615=VECTOR('',#1080,1.);
#616=VECTOR('',#1081,1.);
#617=VECTOR('',#1084,1.);
#618=VECTOR('',#1085,1.);
#619=VECTOR('',#1086,1.);
#620=VECTOR('',#1089,1.);
#621=VECTOR('',#1090,1.);
#622=VECTOR('',#1091,1.);
#623=VECTOR('',#1096,1.);
#624=VECTOR('',#1101,1.);
#625=VECTOR('',#1102,1.);
#626=VECTOR('',#1103,1.);
#627=EDGE_LOOP('',(#92,#93,#94,#95,#96,#97));
#628=EDGE_LOOP('',(#98,#99,#100,#101));
#629=EDGE_LOOP('',(#102));
#630=EDGE_LOOP('',(#103,#104,#105,#106,#107,#108));
#631=EDGE_LOOP('',(#109,#110,#111,#112));
#632=EDGE_LOOP('',(#113));
#633=EDGE_LOOP('',(#114,#115,#116,#117,#118));
#634=EDGE_LOOP('',(#119,#120,#121,#122));
#635=EDGE_LOOP('',(#123,#124,#125,#126));
#636=EDGE_LOOP('',(#127,#128,#129,#130));
#637=EDGE_LOOP('',(#131,#132,#133,#134,#135));
#638=EDGE_LOOP('',(#136,#137,#138,#139));
#639=EDGE_LOOP('',(#140));
#640=EDGE_LOOP('',(#141,#142,#143,#144,#145,#146));
#641=EDGE_LOOP('',(#147,#148,#149,#150));
#642=EDGE_LOOP('',(#151,#152,#153,#154));
#643=EDGE_LOOP('',(#155,#156,#157,#158));
#644=EDGE_LOOP('',(#159,#160,#161,#162));
#645=EDGE_LOOP('',(#163,#164,#165,#166));
#646=EDGE_LOOP('',(#167,#168,#169,#170));
#647=EDGE_LOOP('',(#171,#172,#173,#174));
#648=EDGE_LOOP('',(#175,#176,#177,#178));
#649=EDGE_LOOP('',(#179,#180,#181,#182));
#650=EDGE_LOOP('',(#183,#184,#185,#186));
#651=EDGE_LOOP('',(#187,#188,#189,#190));
#652=EDGE_LOOP('',(#191,#192,#193,#194));
#653=EDGE_LOOP('',(#195,#196,#197,#198));
#654=EDGE_LOOP('',(#199,#200,#201,#202));
#655=EDGE_LOOP('',(#203));
#656=EDGE_LOOP('',(#204));
#657=EDGE_LOOP('',(#205));
#658=EDGE_LOOP('',(#206));
#659=EDGE_LOOP('',(#207));
#660=EDGE_LOOP('',(#208));
#661=EDGE_LOOP('',(#209));
#662=EDGE_LOOP('',(#210));
#663=EDGE_LOOP('',(#211));
#664=EDGE_LOOP('',(#212));
#665=EDGE_LOOP('',(#213));
#666=EDGE_LOOP('',(#214));
#667=EDGE_LOOP('',(#215));
#668=EDGE_LOOP('',(#216));
#669=EDGE_LOOP('',(#217,#218,#219,#220));
#670=EDGE_LOOP('',(#221));
#671=EDGE_LOOP('',(#222,#223,#224,#225));
#672=EDGE_LOOP('',(#226));
#673=EDGE_LOOP('',(#227));
#674=EDGE_LOOP('',(#228,#229,#230,#231,#232,#233,#234,#235,#236,#237,#238,
#239,#240,#241,#242));
#675=EDGE_LOOP('',(#243,#244,#245,#246,#247,#248,#249,#250,#251,#252,#253,
#254));
#676=EDGE_LOOP('',(#255));
#677=EDGE_LOOP('',(#256));
#678=EDGE_LOOP('',(#257));
#679=EDGE_LOOP('',(#258));
#680=EDGE_LOOP('',(#259));
#681=EDGE_LOOP('',(#260));
#682=EDGE_LOOP('',(#261));
#683=EDGE_LOOP('',(#262));
#684=EDGE_LOOP('',(#263,#264,#265,#266,#267,#268,#269,#270,#271,#272,#273,
#274,#275,#276,#277));
#685=EDGE_LOOP('',(#278,#279,#280,#281,#282,#283,#284,#285,#286,#287,#288,
#289));
#686=EDGE_LOOP('',(#290));
#687=EDGE_LOOP('',(#291));
#688=EDGE_LOOP('',(#292));
#689=EDGE_LOOP('',(#293));
#690=EDGE_LOOP('',(#294));
#691=EDGE_LOOP('',(#295));
#692=EDGE_LOOP('',(#296));
#693=EDGE_LOOP('',(#297));
#694=EDGE_LOOP('',(#298));
#695=EDGE_LOOP('',(#299));
#696=EDGE_LOOP('',(#300));
#697=EDGE_LOOP('',(#301));
#698=EDGE_LOOP('',(#302,#303,#304,#305));
#699=EDGE_LOOP('',(#306,#307,#308,#309));
#700=EDGE_LOOP('',(#310,#311,#312,#313));
#701=EDGE_LOOP('',(#314,#315,#316,#317));
#702=FACE_BOUND('',#627,.T.);
#703=FACE_BOUND('',#628,.T.);
#704=FACE_BOUND('',#629,.T.);
#705=FACE_BOUND('',#630,.T.);
#706=FACE_BOUND('',#631,.T.);
#707=FACE_BOUND('',#632,.T.);
#708=FACE_BOUND('',#633,.T.);
#709=FACE_BOUND('',#634,.T.);
#710=FACE_BOUND('',#635,.T.);
#711=FACE_BOUND('',#636,.T.);
#712=FACE_BOUND('',#637,.T.);
#713=FACE_BOUND('',#638,.T.);
#714=FACE_BOUND('',#639,.T.);
#715=FACE_BOUND('',#640,.T.);
#716=FACE_BOUND('',#641,.T.);
#717=FACE_BOUND('',#642,.T.);
#718=FACE_BOUND('',#643,.T.);
#719=FACE_BOUND('',#644,.T.);
#720=FACE_BOUND('',#645,.T.);
#721=FACE_BOUND('',#646,.T.);
#722=FACE_BOUND('',#647,.T.);
#723=FACE_BOUND('',#648,.T.);
#724=FACE_BOUND('',#649,.T.);
#725=FACE_BOUND('',#650,.T.);
#726=FACE_BOUND('',#651,.T.);
#727=FACE_BOUND('',#652,.T.);
#728=FACE_BOUND('',#653,.T.);
#729=FACE_BOUND('',#654,.T.);
#730=FACE_BOUND('',#655,.T.);
#731=FACE_BOUND('',#656,.T.);
#732=FACE_BOUND('',#657,.T.);
#733=FACE_BOUND('',#658,.T.);
#734=FACE_BOUND('',#659,.T.);
#735=FACE_BOUND('',#660,.T.);
#736=FACE_BOUND('',#661,.T.);
#737=FACE_BOUND('',#662,.T.);
#738=FACE_BOUND('',#663,.T.);
#739=FACE_BOUND('',#664,.T.);
#740=FACE_BOUND('',#665,.T.);
#741=FACE_BOUND('',#666,.T.);
#742=FACE_BOUND('',#667,.T.);
#743=FACE_BOUND('',#668,.T.);
#744=FACE_BOUND('',#669,.T.);
#745=FACE_BOUND('',#670,.T.);
#746=FACE_BOUND('',#671,.T.);
#747=FACE_BOUND('',#672,.T.);
#748=FACE_BOUND('',#673,.T.);
#749=FACE_BOUND('',#674,.T.);
#750=FACE_BOUND('',#675,.T.);
#751=FACE_BOUND('',#676,.T.);
#752=FACE_BOUND('',#677,.T.);
#753=FACE_BOUND('',#678,.T.);
#754=FACE_BOUND('',#679,.T.);
#755=FACE_BOUND('',#680,.T.);
#756=FACE_BOUND('',#681,.T.);
#757=FACE_BOUND('',#682,.T.);
#758=FACE_BOUND('',#683,.T.);
#759=FACE_BOUND('',#684,.T.);
#760=FACE_BOUND('',#685,.T.);
#761=FACE_BOUND('',#686,.T.);
#762=FACE_BOUND('',#687,.T.);
#763=FACE_BOUND('',#688,.T.);
#764=FACE_BOUND('',#689,.T.);
#765=FACE_BOUND('',#690,.T.);
#766=FACE_BOUND('',#691,.T.);
#767=FACE_BOUND('',#692,.T.);
#768=FACE_BOUND('',#693,.T.);
#769=FACE_BOUND('',#694,.T.);
#770=FACE_BOUND('',#695,.T.);
#771=FACE_BOUND('',#696,.T.);
#772=FACE_BOUND('',#697,.T.);
#773=FACE_BOUND('',#698,.T.);
#774=FACE_BOUND('',#699,.T.);
#775=FACE_BOUND('',#700,.T.);
#776=FACE_BOUND('',#701,.T.);
#777=PLANE('',#856);
#778=PLANE('',#861);
#779=PLANE('',#866);
#780=PLANE('',#870);
#781=PLANE('',#874);
#782=PLANE('',#879);
#783=PLANE('',#880);
#784=PLANE('',#884);
#785=PLANE('',#888);
#786=PLANE('',#892);
#787=PLANE('',#896);
#788=PLANE('',#897);
#789=PLANE('',#898);
#790=PLANE('',#899);
#791=PLANE('',#903);
#792=PLANE('',#935);
#793=PLANE('',#936);
#794=PLANE('',#941);
#795=PLANE('',#942);
#796=PLANE('',#943);
#797=PLANE('',#944);
#798=ADVANCED_FACE('',(#702),#777,.T.);
#799=ADVANCED_FACE('',(#703,#704),#64,.T.);
#800=ADVANCED_FACE('',(#705),#778,.F.);
#801=ADVANCED_FACE('',(#706,#707),#65,.T.);
#802=ADVANCED_FACE('',(#708),#779,.F.);
#803=ADVANCED_FACE('',(#709),#66,.T.);
#804=ADVANCED_FACE('',(#710),#780,.T.);
#805=ADVANCED_FACE('',(#711),#67,.T.);
#806=ADVANCED_FACE('',(#712),#781,.F.);
#807=ADVANCED_FACE('',(#713,#714),#68,.T.);
#808=ADVANCED_FACE('',(#715),#782,.F.);
#809=ADVANCED_FACE('',(#716),#783,.T.);
#810=ADVANCED_FACE('',(#717),#69,.F.);
#811=ADVANCED_FACE('',(#718),#784,.T.);
#812=ADVANCED_FACE('',(#719),#70,.F.);
#813=ADVANCED_FACE('',(#720),#785,.T.);
#814=ADVANCED_FACE('',(#721),#71,.F.);
#815=ADVANCED_FACE('',(#722),#786,.F.);
#816=ADVANCED_FACE('',(#723),#72,.F.);
#817=ADVANCED_FACE('',(#724),#787,.F.);
#818=ADVANCED_FACE('',(#725),#788,.T.);
#819=ADVANCED_FACE('',(#726),#789,.T.);
#820=ADVANCED_FACE('',(#727),#790,.F.);
#821=ADVANCED_FACE('',(#728),#73,.F.);
#822=ADVANCED_FACE('',(#729),#791,.F.);
#823=ADVANCED_FACE('',(#730,#731),#74,.F.);
#824=ADVANCED_FACE('',(#732,#733),#75,.F.);
#825=ADVANCED_FACE('',(#734,#735),#76,.F.);
#826=ADVANCED_FACE('',(#736,#737),#77,.F.);
#827=ADVANCED_FACE('',(#738,#739),#78,.F.);
#828=ADVANCED_FACE('',(#740,#741),#79,.F.);
#829=ADVANCED_FACE('',(#742,#743),#80,.F.);
#830=ADVANCED_FACE('',(#744,#745),#81,.T.);
#831=ADVANCED_FACE('',(#746),#82,.F.);
#832=ADVANCED_FACE('',(#747,#748),#83,.F.);
#833=ADVANCED_FACE('',(#749,#750,#751,#752,#753,#754,#755,#756,#757,#758),
#792,.T.);
#834=ADVANCED_FACE('',(#759,#760,#761,#762,#763,#764),#793,.F.);
#835=ADVANCED_FACE('',(#765,#766),#794,.T.);
#836=ADVANCED_FACE('',(#767,#768),#795,.T.);
#837=ADVANCED_FACE('',(#769,#770),#796,.T.);
#838=ADVANCED_FACE('',(#771,#772),#797,.T.);
#839=ADVANCED_FACE('',(#773),#12,.F.);
#840=ADVANCED_FACE('',(#774),#13,.F.);
#841=ADVANCED_FACE('',(#775),#14,.F.);
#842=ADVANCED_FACE('',(#776),#15,.F.);
#843=CLOSED_SHELL('',(#798,#799,#800,#801,#802,#803,#804,#805,#806,#807,
#808,#809,#810,#811,#812,#813,#814,#815,#816,#817,#818,#819,#820,#821,#822,
#823,#824,#825,#826,#827,#828,#829,#830,#831,#832,#833,#834,#835,#836,#837,
#838,#839,#840,#841,#842));
#844=STYLED_ITEM('',(#845),#852);
#845=PRESENTATION_STYLE_ASSIGNMENT((#846));
#846=SURFACE_STYLE_USAGE(.BOTH.,#847);
#847=SURFACE_SIDE_STYLE('',(#848));
#848=SURFACE_STYLE_FILL_AREA(#849);
#849=FILL_AREA_STYLE('',(#850));
#850=FILL_AREA_STYLE_COLOUR('',#851);
#851=COLOUR_RGB('',0.615686274509804,0.811764705882353,0.929411764705882);
#852=MANIFOLD_SOLID_BREP('Part 1',#843);
#853=SHAPE_DEFINITION_REPRESENTATION(#1473,#854);
#854=SHAPE_REPRESENTATION('Part 1',(#855),#1468);
#855=AXIS2_PLACEMENT_3D('',#1194,#949,#950);
#856=AXIS2_PLACEMENT_3D('',#1195,#951,#952);
#857=AXIS2_PLACEMENT_3D('',#1216,#957,#958);
#858=AXIS2_PLACEMENT_3D('',#1217,#959,#960);
#859=AXIS2_PLACEMENT_3D('',#1221,#962,#963);
#860=AXIS2_PLACEMENT_3D('',#1222,#964,#965);
#861=AXIS2_PLACEMENT_3D('',#1224,#966,#967);
#862=AXIS2_PLACEMENT_3D('',#1242,#971,#972);
#863=AXIS2_PLACEMENT_3D('',#1243,#973,#974);
#864=AXIS2_PLACEMENT_3D('',#1247,#976,#977);
#865=AXIS2_PLACEMENT_3D('',#1248,#978,#979);
#866=AXIS2_PLACEMENT_3D('',#1250,#980,#981);
#867=AXIS2_PLACEMENT_3D('',#1262,#985,#986);
#868=AXIS2_PLACEMENT_3D('',#1263,#987,#988);
#869=AXIS2_PLACEMENT_3D('',#1267,#990,#991);
#870=AXIS2_PLACEMENT_3D('',#1268,#992,#993);
#871=AXIS2_PLACEMENT_3D('',#1274,#997,#998);
#872=AXIS2_PLACEMENT_3D('',#1275,#999,#1000);
#873=AXIS2_PLACEMENT_3D('',#1279,#1002,#1003);
#874=AXIS2_PLACEMENT_3D('',#1280,#1004,#1005);
#875=AXIS2_PLACEMENT_3D('',#1292,#1009,#1010);
#876=AXIS2_PLACEMENT_3D('',#1293,#1011,#1012);
#877=AXIS2_PLACEMENT_3D('',#1297,#1014,#1015);
#878=AXIS2_PLACEMENT_3D('',#1298,#1016,#1017);
#879=AXIS2_PLACEMENT_3D('',#1300,#1018,#1019);
#880=AXIS2_PLACEMENT_3D('',#1318,#1023,#1024);
#881=AXIS2_PLACEMENT_3D('',#1327,#1029,#1030);
#882=AXIS2_PLACEMENT_3D('',#1328,#1031,#1032);
#883=AXIS2_PLACEMENT_3D('',#1332,#1034,#1035);
#884=AXIS2_PLACEMENT_3D('',#1333,#1036,#1037);
#885=AXIS2_PLACEMENT_3D('',#1339,#1041,#1042);
#886=AXIS2_PLACEMENT_3D('',#1340,#1043,#1044);
#887=AXIS2_PLACEMENT_3D('',#1344,#1046,#1047);
#888=AXIS2_PLACEMENT_3D('',#1345,#1048,#1049);
#889=AXIS2_PLACEMENT_3D('',#1351,#1053,#1054);
#890=AXIS2_PLACEMENT_3D('',#1352,#1055,#1056);
#891=AXIS2_PLACEMENT_3D('',#1356,#1058,#1059);
#892=AXIS2_PLACEMENT_3D('',#1357,#1060,#1061);
#893=AXIS2_PLACEMENT_3D('',#1363,#1065,#1066);
#894=AXIS2_PLACEMENT_3D('',#1364,#1067,#1068);
#895=AXIS2_PLACEMENT_3D('',#1368,#1070,#1071);
#896=AXIS2_PLACEMENT_3D('',#1369,#1072,#1073);
#897=AXIS2_PLACEMENT_3D('',#1375,#1077,#1078);
#898=AXIS2_PLACEMENT_3D('',#1381,#1082,#1083);
#899=AXIS2_PLACEMENT_3D('',#1387,#1087,#1088);
#900=AXIS2_PLACEMENT_3D('',#1393,#1092,#1093);
#901=AXIS2_PLACEMENT_3D('',#1394,#1094,#1095);
#902=AXIS2_PLACEMENT_3D('',#1398,#1097,#1098);
#903=AXIS2_PLACEMENT_3D('',#1399,#1099,#1100);
#904=AXIS2_PLACEMENT_3D('',#1405,#1104,#1105);
#905=AXIS2_PLACEMENT_3D('',#1406,#1106,#1107);
#906=AXIS2_PLACEMENT_3D('',#1408,#1108,#1109);
#907=AXIS2_PLACEMENT_3D('',#1410,#1110,#1111);
#908=AXIS2_PLACEMENT_3D('',#1411,#1112,#1113);
#909=AXIS2_PLACEMENT_3D('',#1413,#1114,#1115);
#910=AXIS2_PLACEMENT_3D('',#1415,#1116,#1117);
#911=AXIS2_PLACEMENT_3D('',#1416,#1118,#1119);
#912=AXIS2_PLACEMENT_3D('',#1418,#1120,#1121);
#913=AXIS2_PLACEMENT_3D('',#1420,#1122,#1123);
#914=AXIS2_PLACEMENT_3D('',#1421,#1124,#1125);
#915=AXIS2_PLACEMENT_3D('',#1423,#1126,#1127);
#916=AXIS2_PLACEMENT_3D('',#1425,#1128,#1129);
#917=AXIS2_PLACEMENT_3D('',#1426,#1130,#1131);
#918=AXIS2_PLACEMENT_3D('',#1428,#1132,#1133);
#919=AXIS2_PLACEMENT_3D('',#1430,#1134,#1135);
#920=AXIS2_PLACEMENT_3D('',#1431,#1136,#1137);
#921=AXIS2_PLACEMENT_3D('',#1433,#1138,#1139);
#922=AXIS2_PLACEMENT_3D('',#1435,#1140,#1141);
#923=AXIS2_PLACEMENT_3D('',#1436,#1142,#1143);
#924=AXIS2_PLACEMENT_3D('',#1438,#1144,#1145);
#925=AXIS2_PLACEMENT_3D('',#1440,#1146,#1147);
#926=AXIS2_PLACEMENT_3D('',#1441,#1148,#1149);
#927=AXIS2_PLACEMENT_3D('',#1442,#1150,#1151);
#928=AXIS2_PLACEMENT_3D('',#1443,#1152,#1153);
#929=AXIS2_PLACEMENT_3D('',#1445,#1154,#1155);
#930=AXIS2_PLACEMENT_3D('',#1446,#1156,#1157);
#931=AXIS2_PLACEMENT_3D('',#1447,#1158,#1159);
#932=AXIS2_PLACEMENT_3D('',#1448,#1160,#1161);
#933=AXIS2_PLACEMENT_3D('',#1449,#1162,#1163);
#934=AXIS2_PLACEMENT_3D('',#1451,#1164,#1165);
#935=AXIS2_PLACEMENT_3D('',#1453,#1166,#1167);
#936=AXIS2_PLACEMENT_3D('',#1454,#1168,#1169);
#937=AXIS2_PLACEMENT_3D('',#1455,#1170,#1171);
#938=AXIS2_PLACEMENT_3D('',#1456,#1172,#1173);
#939=AXIS2_PLACEMENT_3D('',#1457,#1174,#1175);
#940=AXIS2_PLACEMENT_3D('',#1458,#1176,#1177);
#941=AXIS2_PLACEMENT_3D('',#1459,#1178,#1179);
#942=AXIS2_PLACEMENT_3D('',#1460,#1180,#1181);
#943=AXIS2_PLACEMENT_3D('',#1461,#1182,#1183);
#944=AXIS2_PLACEMENT_3D('',#1462,#1184,#1185);
#945=AXIS2_PLACEMENT_3D('',#1463,#1186,#1187);
#946=AXIS2_PLACEMENT_3D('',#1464,#1188,#1189);
#947=AXIS2_PLACEMENT_3D('',#1465,#1190,#1191);
#948=AXIS2_PLACEMENT_3D('',#1466,#1192,#1193);
#949=DIRECTION('',(0.,0.,1.));
#950=DIRECTION('',(1.,0.,0.));
#951=DIRECTION('',(0.,1.,0.));
#952=DIRECTION('',(0.,0.,1.));
#953=DIRECTION('',(1.,0.,0.));
#954=DIRECTION('',(0.,0.,-1.));
#955=DIRECTION('',(1.,0.,0.));
#956=DIRECTION('',(0.,0.,-1.));
#957=DIRECTION('',(0.,0.,-1.));
#958=DIRECTION('',(-1.,0.,0.));
#959=DIRECTION('',(0.,0.,1.));
#960=DIRECTION('',(1.,0.,0.));
#961=DIRECTION('',(0.,0.,-1.));
#962=DIRECTION('',(0.,0.,1.));
#963=DIRECTION('',(1.,0.,0.));
#964=DIRECTION('',(0.,0.,1.));
#965=DIRECTION('',(1.,0.,0.));
#966=DIRECTION('',(1.,0.,0.));
#967=DIRECTION('',(0.,0.,-1.));
#968=DIRECTION('',(0.,-1.,0.));
#969=DIRECTION('',(0.,0.,-1.));
#970=DIRECTION('',(0.,-1.,0.));
#971=DIRECTION('',(0.,0.,-1.));
#972=DIRECTION('',(-1.,0.,0.));
#973=DIRECTION('',(0.,0.,1.));
#974=DIRECTION('',(1.,0.,0.));
#975=DIRECTION('',(0.,0.,-1.));
#976=DIRECTION('',(0.,0.,1.));
#977=DIRECTION('',(1.,0.,0.));
#978=DIRECTION('',(0.,0.,1.));
#979=DIRECTION('',(1.,0.,0.));
#980=DIRECTION('',(0.274721127897378,0.961523947640823,0.));
#981=DIRECTION('',(-0.961523947640823,0.274721127897378,0.));
#982=DIRECTION('',(0.961523947640823,-0.274721127897378,0.));
#983=DIRECTION('',(0.,0.,-1.));
#984=DIRECTION('',(0.961523947640823,-0.274721127897378,0.));
#985=DIRECTION('',(0.,0.,-1.));
#986=DIRECTION('',(-1.,0.,0.));
#987=DIRECTION('',(0.,0.,1.));
#988=DIRECTION('',(1.,0.,0.));
#989=DIRECTION('',(0.,0.,-1.));
#990=DIRECTION('',(0.,0.,1.));
#991=DIRECTION('',(1.,0.,0.));
#992=DIRECTION('',(0.,-1.,0.));
#993=DIRECTION('',(0.,0.,-1.));
#994=DIRECTION('',(-1.,0.,0.));
#995=DIRECTION('',(0.,0.,-1.));
#996=DIRECTION('',(-1.,0.,0.));
#997=DIRECTION('',(0.,0.,-1.));
#998=DIRECTION('',(-1.,0.,0.));
#999=DIRECTION('',(0.,0.,1.));
#1000=DIRECTION('',(1.,0.,0.));
#1001=DIRECTION('',(0.,0.,-1.));
#1002=DIRECTION('',(0.,0.,1.));
#1003=DIRECTION('',(1.,0.,0.));
#1004=DIRECTION('',(-0.290481603623698,0.956880576642772,0.));
#1005=DIRECTION('',(-0.956880576642772,-0.290481603623698,0.));
#1006=DIRECTION('',(0.956880576642772,0.290481603623698,0.));
#1007=DIRECTION('',(0.,0.,-1.));
#1008=DIRECTION('',(0.956880576642772,0.290481603623698,0.));
#1009=DIRECTION('',(0.,0.,-1.));
#1010=DIRECTION('',(-1.,0.,0.));
#1011=DIRECTION('',(0.,0.,1.));
#1012=DIRECTION('',(1.,0.,0.));
#1013=DIRECTION('',(0.,0.,-1.));
#1014=DIRECTION('',(0.,0.,1.));
#1015=DIRECTION('',(1.,0.,0.));
#1016=DIRECTION('',(0.,0.,1.));
#1017=DIRECTION('',(1.,0.,0.));
#1018=DIRECTION('',(-1.,0.,0.));
#1019=DIRECTION('',(0.,0.,1.));
#1020=DIRECTION('',(0.,1.,0.));
#1021=DIRECTION('',(0.,0.,-1.));
#1022=DIRECTION('',(0.,1.,0.));
#1023=DIRECTION('',(0.,-1.,0.));
#1024=DIRECTION('',(0.,0.,-1.));
#1025=DIRECTION('',(-1.,0.,0.));
#1026=DIRECTION('',(0.,0.,-1.));
#1027=DIRECTION('',(-1.,0.,0.));
#1028=DIRECTION('',(0.,0.,-1.));
#1029=DIRECTION('',(0.,0.,-1.));
#1030=DIRECTION('',(-1.,0.,0.));
#1031=DIRECTION('',(0.,0.,1.));
#1032=DIRECTION('',(1.,0.,0.));
#1033=DIRECTION('',(0.,0.,-1.));
#1034=DIRECTION('',(0.,0.,1.));
#1035=DIRECTION('',(1.,0.,0.));
#1036=DIRECTION('',(-1.,0.,0.));
#1037=DIRECTION('',(0.,0.,1.));
#1038=DIRECTION('',(0.,1.,0.));
#1039=DIRECTION('',(0.,0.,-1.));
#1040=DIRECTION('',(0.,1.,0.));
#1041=DIRECTION('',(0.,0.,-1.));
#1042=DIRECTION('',(-1.,0.,0.));
#1043=DIRECTION('',(0.,0.,1.));
#1044=DIRECTION('',(1.,0.,0.));
#1045=DIRECTION('',(0.,0.,-1.));
#1046=DIRECTION('',(0.,0.,1.));
#1047=DIRECTION('',(1.,0.,0.));
#1048=DIRECTION('',(-0.294094904764818,0.955776222235818,0.));
#1049=DIRECTION('',(-0.955776222235818,-0.294094904764818,0.));
#1050=DIRECTION('',(0.955776222235818,0.294094904764818,0.));
#1051=DIRECTION('',(0.,0.,-1.));
#1052=DIRECTION('',(0.955776222235818,0.294094904764818,0.));
#1053=DIRECTION('',(0.,0.,-1.));
#1054=DIRECTION('',(-1.,0.,0.));
#1055=DIRECTION('',(0.,0.,1.));
#1056=DIRECTION('',(1.,0.,0.));
#1057=DIRECTION('',(0.,0.,-1.));
#1058=DIRECTION('',(0.,0.,1.));
#1059=DIRECTION('',(1.,0.,0.));
#1060=DIRECTION('',(0.00261291628829278,-0.999996586328409,0.));
#1061=DIRECTION('',(0.999996586328409,0.00261291628829278,0.));
#1062=DIRECTION('',(-0.999996586328409,-0.00261291628829278,0.));
#1063=DIRECTION('',(0.,0.,-1.));
#1064=DIRECTION('',(-0.999996586328409,-0.00261291628829278,0.));
#1065=DIRECTION('',(0.,0.,-1.));
#1066=DIRECTION('',(-1.,0.,0.));
#1067=DIRECTION('',(0.,0.,1.));
#1068=DIRECTION('',(1.,0.,0.));
#1069=DIRECTION('',(0.,0.,-1.));
#1070=DIRECTION('',(0.,0.,1.));
#1071=DIRECTION('',(1.,0.,0.));
#1072=DIRECTION('',(-0.274721127897378,-0.961523947640823,0.));
#1073=DIRECTION('',(0.961523947640823,-0.274721127897378,0.));
#1074=DIRECTION('',(-0.961523947640823,0.274721127897378,0.));
#1075=DIRECTION('',(0.,0.,-1.));
#1076=DIRECTION('',(-0.961523947640823,0.274721127897378,0.));
#1077=DIRECTION('',(0.,1.,0.));
#1078=DIRECTION('',(0.,0.,1.));
#1079=DIRECTION('',(1.,0.,0.));
#1080=DIRECTION('',(0.,0.,-1.));
#1081=DIRECTION('',(1.,0.,0.));
#1082=DIRECTION('',(1.,0.,0.));
#1083=DIRECTION('',(0.,0.,-1.));
#1084=DIRECTION('',(0.,-1.,0.));
#1085=DIRECTION('',(0.,0.,-1.));
#1086=DIRECTION('',(0.,-1.,0.));
#1087=DIRECTION('',(-0.274721127897378,-0.961523947640823,0.));
#1088=DIRECTION('',(0.961523947640823,-0.274721127897378,0.));
#1089=DIRECTION('',(-0.961523947640823,0.274721127897378,0.));
#1090=DIRECTION('',(0.,0.,-1.));
#1091=DIRECTION('',(-0.961523947640823,0.274721127897378,0.));
#1092=DIRECTION('',(0.,0.,-1.));
#1093=DIRECTION('',(-1.,0.,0.));
#1094=DIRECTION('',(0.,0.,1.));
#1095=DIRECTION('',(1.,0.,0.));
#1096=DIRECTION('',(0.,0.,-1.));
#1097=DIRECTION('',(0.,0.,1.));
#1098=DIRECTION('',(1.,0.,0.));
#1099=DIRECTION('',(-1.,0.,0.));
#1100=DIRECTION('',(0.,0.,1.));
#1101=DIRECTION('',(0.,1.,0.));
#1102=DIRECTION('',(0.,0.,-1.));
#1103=DIRECTION('',(0.,1.,0.));
#1104=DIRECTION('',(0.,0.,-1.));
#1105=DIRECTION('',(-1.,0.,0.));
#1106=DIRECTION('',(0.,0.,1.));
#1107=DIRECTION('',(1.,0.,0.));
#1108=DIRECTION('',(0.,0.,1.));
#1109=DIRECTION('',(1.,0.,0.));
#1110=DIRECTION('',(0.,0.,-1.));
#1111=DIRECTION('',(-1.,0.,0.));
#1112=DIRECTION('',(0.,0.,1.));
#1113=DIRECTION('',(1.,0.,0.));
#1114=DIRECTION('',(0.,0.,1.));
#1115=DIRECTION('',(1.,0.,0.));
#1116=DIRECTION('',(0.,0.,-1.));
#1117=DIRECTION('',(-1.,0.,0.));
#1118=DIRECTION('',(0.,0.,1.));
#1119=DIRECTION('',(1.,0.,0.));
#1120=DIRECTION('',(0.,0.,1.));
#1121=DIRECTION('',(1.,0.,0.));
#1122=DIRECTION('',(0.,0.,-1.));
#1123=DIRECTION('',(-1.,0.,0.));
#1124=DIRECTION('',(0.,0.,1.));
#1125=DIRECTION('',(1.,0.,0.));
#1126=DIRECTION('',(0.,0.,1.));
#1127=DIRECTION('',(1.,0.,0.));
#1128=DIRECTION('',(0.,0.,-1.));
#1129=DIRECTION('',(-1.,0.,0.));
#1130=DIRECTION('',(0.,0.,1.));
#1131=DIRECTION('',(1.,0.,0.));
#1132=DIRECTION('',(0.,0.,1.));
#1133=DIRECTION('',(1.,0.,0.));
#1134=DIRECTION('',(0.,0.,-1.));
#1135=DIRECTION('',(-1.,0.,0.));
#1136=DIRECTION('',(0.,0.,1.));
#1137=DIRECTION('',(1.,0.,0.));
#1138=DIRECTION('',(0.,0.,1.));
#1139=DIRECTION('',(1.,0.,0.));
#1140=DIRECTION('',(0.,0.,-1.));
#1141=DIRECTION('',(-1.,0.,0.));
#1142=DIRECTION('',(0.,0.,1.));
#1143=DIRECTION('',(1.,0.,0.));
#1144=DIRECTION('',(0.,0.,1.));
#1145=DIRECTION('',(1.,0.,0.));
#1146=DIRECTION('',(0.,0.,-1.));
#1147=DIRECTION('',(-1.,0.,0.));
#1148=DIRECTION('',(0.,0.,1.));
#1149=DIRECTION('',(1.,0.,0.));
#1150=DIRECTION('',(0.,0.,1.));
#1151=DIRECTION('',(1.,0.,0.));
#1152=DIRECTION('',(0.,0.,1.));
#1153=DIRECTION('',(1.,0.,0.));
#1154=DIRECTION('',(0.,0.,-1.));
#1155=DIRECTION('',(-1.,0.,0.));
#1156=DIRECTION('',(0.,0.,1.));
#1157=DIRECTION('',(1.,0.,0.));
#1158=DIRECTION('',(0.,0.,1.));
#1159=DIRECTION('',(1.,0.,0.));
#1160=DIRECTION('',(0.,0.,-1.));
#1161=DIRECTION('',(-1.,0.,0.));
#1162=DIRECTION('',(0.,0.,1.));
#1163=DIRECTION('',(1.,0.,0.));
#1164=DIRECTION('',(0.,0.,1.));
#1165=DIRECTION('',(1.,0.,0.));
#1166=DIRECTION('',(0.,0.,1.));
#1167=DIRECTION('',(1.,0.,0.));
#1168=DIRECTION('',(0.,0.,1.));
#1169=DIRECTION('',(1.,0.,0.));
#1170=DIRECTION('',(0.,0.,1.));
#1171=DIRECTION('',(1.,0.,0.));
#1172=DIRECTION('',(0.,0.,1.));
#1173=DIRECTION('',(1.,0.,0.));
#1174=DIRECTION('',(0.,0.,1.));
#1175=DIRECTION('',(1.,0.,0.));
#1176=DIRECTION('',(0.,0.,1.));
#1177=DIRECTION('',(1.,0.,0.));
#1178=DIRECTION('',(0.,0.,-1.));
#1179=DIRECTION('',(1.,0.,0.));
#1180=DIRECTION('',(0.,0.,-1.));
#1181=DIRECTION('',(1.,0.,0.));
#1182=DIRECTION('',(0.,0.,-1.));
#1183=DIRECTION('',(1.,0.,0.));
#1184=DIRECTION('',(0.,0.,-1.));
#1185=DIRECTION('',(1.,0.,0.));
#1186=DIRECTION('',(0.,0.,1.));
#1187=DIRECTION('',(1.,0.,0.));
#1188=DIRECTION('',(0.,0.,1.));
#1189=DIRECTION('',(1.,0.,0.));
#1190=DIRECTION('',(0.,0.,1.));
#1191=DIRECTION('',(1.,0.,0.));
#1192=DIRECTION('',(0.,0.,1.));
#1193=DIRECTION('',(1.,0.,0.));
#1194=CARTESIAN_POINT('',(0.,0.,0.));
#1195=CARTESIAN_POINT('',(-0.09625,0.0425,0.0025));
#1196=CARTESIAN_POINT('',(-0.09625,0.0425,0.));
#1197=CARTESIAN_POINT('',(-0.103346688068541,0.0425,0.));
#1198=CARTESIAN_POINT('',(0.0893466880685409,0.0425,0.));
#1199=CARTESIAN_POINT('',(-0.103346688068541,0.0425,0.));
#1200=CARTESIAN_POINT('',(-0.10409901950459,0.0425,-9.57063802808216E-18));
#1201=CARTESIAN_POINT('',(-0.105547103186786,0.0425,-0.000429891544056509));
#1202=CARTESIAN_POINT('',(-0.106848800963247,0.0425,-0.00114332478617687));
#1203=CARTESIAN_POINT('',(-0.1075,0.0425,-0.0015));
#1204=CARTESIAN_POINT('',(-0.1075,0.0425,-0.0015));
#1205=CARTESIAN_POINT('',(-0.1075,0.0425,0.0025));
#1206=CARTESIAN_POINT('',(-0.1075,0.0425,0.0025));
#1207=CARTESIAN_POINT('',(-0.09625,0.0425,0.0025));
#1208=CARTESIAN_POINT('',(0.0935,0.0425,0.0025));
#1209=CARTESIAN_POINT('',(0.0935,0.0425,0.0025));
#1210=CARTESIAN_POINT('',(0.0935,0.0425,-0.0015));
#1211=CARTESIAN_POINT('',(0.089346688068541,0.0425,0.));
#1212=CARTESIAN_POINT('',(0.0900990195045899,0.0425,-6.52543501914716E-18));
#1213=CARTESIAN_POINT('',(0.0915471031868307,0.0425,-0.000429891543975935));
#1214=CARTESIAN_POINT('',(0.0928488009631583,0.0425,-0.00114332478633823));
#1215=CARTESIAN_POINT('',(0.0935,0.0425,-0.0015));
#1216=CARTESIAN_POINT('',(-0.1075,0.0375,0.0025));
#1217=CARTESIAN_POINT('',(-0.1075,0.0375,-0.0015));
#1218=CARTESIAN_POINT('',(-0.1125,0.0375,-0.0015));
#1219=CARTESIAN_POINT('',(-0.1125,0.0375,0.0025));
#1220=CARTESIAN_POINT('',(-0.1125,0.0375,0.0025));
#1221=CARTESIAN_POINT('',(-0.1075,0.0375,0.0025));
#1222=CARTESIAN_POINT('',(-0.1075,0.0375,-0.0025));
#1223=CARTESIAN_POINT('',(-0.1025,0.0375,-0.0025));
#1224=CARTESIAN_POINT('',(-0.1125,0.01,0.0025));
#1225=CARTESIAN_POINT('',(-0.1125,0.0333466880685409,0.));
#1226=CARTESIAN_POINT('',(-0.1125,0.0340990195045899,1.34858990395713E-17));
#1227=CARTESIAN_POINT('',(-0.1125,0.0355471031868207,-0.000429891543993883));
#1228=CARTESIAN_POINT('',(-0.1125,0.0368488009631781,-0.00114332478630215));
#1229=CARTESIAN_POINT('',(-0.1125,0.0375,-0.0015));
#1230=CARTESIAN_POINT('',(-0.1125,0.0333466880685409,0.));
#1231=CARTESIAN_POINT('',(-0.1125,0.01,0.));
#1232=CARTESIAN_POINT('',(-0.1125,-0.013346688068541,0.));
#1233=CARTESIAN_POINT('',(-0.1125,-0.013346688068541,0.));
#1234=CARTESIAN_POINT('',(-0.1125,-0.0140990195045899,-2.17514500638237E-18));
#1235=CARTESIAN_POINT('',(-0.1125,-0.0155471031868007,-0.000429891544030249));
#1236=CARTESIAN_POINT('',(-0.1125,-0.0168488009632179,-0.00114332478622941));
#1237=CARTESIAN_POINT('',(-0.1125,-0.0175,-0.0015));
#1238=CARTESIAN_POINT('',(-0.1125,-0.0175,-0.0015));
#1239=CARTESIAN_POINT('',(-0.1125,-0.0175,0.0025));
#1240=CARTESIAN_POINT('',(-0.1125,-0.0175,0.0025));
#1241=CARTESIAN_POINT('',(-0.1125,0.01,0.0025));
#1242=CARTESIAN_POINT('',(-0.1075,-0.0175,0.0025));
#1243=CARTESIAN_POINT('',(-0.1075,-0.0175,-0.0015));
#1244=CARTESIAN_POINT('',(-0.108873605639487,-0.0223076197382042,-0.0015));
#1245=CARTESIAN_POINT('',(-0.108873605639487,-0.0223076197382042,0.0025));
#1246=CARTESIAN_POINT('',(-0.108873605639487,-0.0223076197382042,0.0025));
#1247=CARTESIAN_POINT('',(-0.1075,-0.0175,0.0025));
#1248=CARTESIAN_POINT('',(-0.1075,-0.0175,-0.0025));
#1249=CARTESIAN_POINT('',(-0.1025,-0.0175,-0.0025));
#1250=CARTESIAN_POINT('',(-0.0969368028197435,-0.0257181348295594,0.0025));
#1251=CARTESIAN_POINT('',(-0.104880096755367,-0.0234486222765242,0.));
#1252=CARTESIAN_POINT('',(-0.105603481447691,-0.0232419409358602,1.47298118360209E-17));
#1253=CARTESIAN_POINT('',(-0.106995848586337,-0.0228441217533898,-0.000429891544006119));
#1254=CARTESIAN_POINT('',(-0.108247462170915,-0.0224865178720819,-0.00114332478627764));
#1255=CARTESIAN_POINT('',(-0.108873605639487,-0.0223076197382042,-0.0015));
#1256=CARTESIAN_POINT('',(-0.104880096755367,-0.0234486222765242,0.));
#1257=CARTESIAN_POINT('',(-0.0969368028197435,-0.0257181348295594,0.));
#1258=CARTESIAN_POINT('',(-0.0388736056394868,-0.0423076197382041,0.));
#1259=CARTESIAN_POINT('',(-0.0388736056394868,-0.0423076197382041,0.0025));
#1260=CARTESIAN_POINT('',(-0.0388736056394868,-0.0423076197382041,0.0025));
#1261=CARTESIAN_POINT('',(-0.0969368028197435,-0.0257181348295594,0.0025));
#1262=CARTESIAN_POINT('',(-0.0375,-0.0375,0.0025));
#1263=CARTESIAN_POINT('',(-0.0375,-0.0375,0.));
#1264=CARTESIAN_POINT('',(-0.0375,-0.0425,0.));
#1265=CARTESIAN_POINT('',(-0.0375,-0.0425,0.0025));
#1266=CARTESIAN_POINT('',(-0.0375,-0.0425,0.0025));
#1267=CARTESIAN_POINT('',(-0.0375,-0.0375,0.0025));
#1268=CARTESIAN_POINT('',(0.,-0.0425,0.0025));
#1269=CARTESIAN_POINT('',(0.,-0.0425,0.));
#1270=CARTESIAN_POINT('',(0.0375,-0.0425,0.));
#1271=CARTESIAN_POINT('',(0.0375,-0.0425,0.0025));
#1272=CARTESIAN_POINT('',(0.0375,-0.0425,0.0025));
#1273=CARTESIAN_POINT('',(0.,-0.0425,0.0025));
#1274=CARTESIAN_POINT('',(0.0375,-0.0375,0.0025));
#1275=CARTESIAN_POINT('',(0.0375,-0.0375,0.));
#1276=CARTESIAN_POINT('',(0.0389524080181185,-0.0422844028832139,0.));
#1277=CARTESIAN_POINT('',(0.0389524080181185,-0.0422844028832139,0.0025));
#1278=CARTESIAN_POINT('',(0.0389524080181185,-0.0422844028832139,0.0025));
#1279=CARTESIAN_POINT('',(0.0375,-0.0375,0.0025));
#1280=CARTESIAN_POINT('',(0.0619762040090592,-0.0352950362431068,0.0025));
#1281=CARTESIAN_POINT('',(0.0619762040090592,-0.0352950362431068,0.));
#1282=CARTESIAN_POINT('',(0.0909781845021666,-0.0264908635934136,0.));
#1283=CARTESIAN_POINT('',(0.0909781845021666,-0.0264908635934136,0.));
#1284=CARTESIAN_POINT('',(0.0916980758405196,-0.0262723251514135,-1.35957017164695E-17));
#1285=CARTESIAN_POINT('',(0.093083718989361,-0.0258516834812295,-0.000429891544067273));
#1286=CARTESIAN_POINT('',(0.094329288308332,-0.0254735642236848,-0.00114332478615562));
#1287=CARTESIAN_POINT('',(0.0949524080181185,-0.0252844028832139,-0.0015));
#1288=CARTESIAN_POINT('',(0.0949524080181185,-0.0252844028832139,-0.0015));
#1289=CARTESIAN_POINT('',(0.0949524080181185,-0.0252844028832139,0.0025));
#1290=CARTESIAN_POINT('',(0.0949524080181185,-0.0252844028832139,0.0025));
#1291=CARTESIAN_POINT('',(0.0619762040090592,-0.0352950362431068,0.0025));
#1292=CARTESIAN_POINT('',(0.0935,-0.0205,0.0025));
#1293=CARTESIAN_POINT('',(0.0935,-0.0205,-0.0015));
#1294=CARTESIAN_POINT('',(0.0985,-0.0205,-0.0015));
#1295=CARTESIAN_POINT('',(0.0985,-0.0205,0.0025));
#1296=CARTESIAN_POINT('',(0.0985,-0.0205,0.0025));
#1297=CARTESIAN_POINT('',(0.0935,-0.0205,0.0025));
#1298=CARTESIAN_POINT('',(0.0935,-0.0205,-0.0025));
#1299=CARTESIAN_POINT('',(0.0985000000000001,-0.0205,-0.0025));
#1300=CARTESIAN_POINT('',(0.0985,0.0085,0.0025));
#1301=CARTESIAN_POINT('',(0.0985,-0.0163466880685408,0.));
#1302=CARTESIAN_POINT('',(0.0985,-0.0170990195045899,-3.91526101148874E-18));
#1303=CARTESIAN_POINT('',(0.0985,-0.0185471031868792,-0.000429891543887364));
#1304=CARTESIAN_POINT('',(0.0985,-0.0198488009630611,-0.00114332478651563));
#1305=CARTESIAN_POINT('',(0.0985,-0.0205,-0.0015));
#1306=CARTESIAN_POINT('',(0.0985,-0.0163466880685408,0.));
#1307=CARTESIAN_POINT('',(0.0985,0.0085,0.));
#1308=CARTESIAN_POINT('',(0.0985,0.033346688068541,0.));
#1309=CARTESIAN_POINT('',(0.0985,0.033346688068541,0.));
#1310=CARTESIAN_POINT('',(0.0985,0.0340990195045899,3.48023201021179E-18));
#1311=CARTESIAN_POINT('',(0.0985,0.0355471031867961,-0.000429891544038709));
#1312=CARTESIAN_POINT('',(0.0985,0.0368488009632272,-0.00114332478621246));
#1313=CARTESIAN_POINT('',(0.0985,0.0375,-0.0015));
#1314=CARTESIAN_POINT('',(0.0985,0.0375,-0.0015));
#1315=CARTESIAN_POINT('',(0.0985,0.0375,0.0025));
#1316=CARTESIAN_POINT('',(0.0985,0.0375,0.0025));
#1317=CARTESIAN_POINT('',(0.0985,0.0085,0.0025));
#1318=CARTESIAN_POINT('',(-0.0875,0.0325,0.0025));
#1319=CARTESIAN_POINT('',(-0.0875,0.0325,0.));
#1320=CARTESIAN_POINT('',(0.0855,0.0325,0.));
#1321=CARTESIAN_POINT('',(-0.0995,0.0325,0.));
#1322=CARTESIAN_POINT('',(0.0855,0.0325,0.0025));
#1323=CARTESIAN_POINT('',(0.0855,0.0325,0.0025));
#1324=CARTESIAN_POINT('',(-0.0875,0.0325,0.0025));
#1325=CARTESIAN_POINT('',(-0.0995,0.0325,0.0025));
#1326=CARTESIAN_POINT('',(-0.0995,0.0325,0.0025));
#1327=CARTESIAN_POINT('',(0.0855,0.0295,0.0025));
#1328=CARTESIAN_POINT('',(0.0855,0.0295,0.));
#1329=CARTESIAN_POINT('',(0.0885,0.0295,0.));
#1330=CARTESIAN_POINT('',(0.0885,0.0295,0.0025));
#1331=CARTESIAN_POINT('',(0.0885,0.0295,0.0025));
#1332=CARTESIAN_POINT('',(0.0855,0.0295,0.0025));
#1333=CARTESIAN_POINT('',(0.0885,0.00745426933130384,0.0025));
#1334=CARTESIAN_POINT('',(0.0885,0.00745426933130384,0.));
#1335=CARTESIAN_POINT('',(0.0885,-0.0145914613373923,0.));
#1336=CARTESIAN_POINT('',(0.0885,-0.0145914613373923,0.0025));
#1337=CARTESIAN_POINT('',(0.0885,-0.0145914613373923,0.0025));
#1338=CARTESIAN_POINT('',(0.0885,0.00745426933130384,0.0025));
#1339=CARTESIAN_POINT('',(0.0855,-0.0145914613373923,0.0025));
#1340=CARTESIAN_POINT('',(0.0855,-0.0145914613373923,0.));
#1341=CARTESIAN_POINT('',(0.0863822847142945,-0.0174587900040997,0.));
#1342=CARTESIAN_POINT('',(0.0863822847142945,-0.0174587900040997,0.0025));
#1343=CARTESIAN_POINT('',(0.0863822847142945,-0.0174587900040997,0.0025));
#1344=CARTESIAN_POINT('',(0.0855,-0.0145914613373923,0.0025));
#1345=CARTESIAN_POINT('',(0.0614636686474338,-0.0251263149420096,0.0025));
#1346=CARTESIAN_POINT('',(0.0614636686474338,-0.0251263149420096,0.));
#1347=CARTESIAN_POINT('',(0.0379273372948677,-0.0323685071692382,0.));
#1348=CARTESIAN_POINT('',(0.0379273372948677,-0.0323685071692382,0.0025));
#1349=CARTESIAN_POINT('',(0.0379273372948677,-0.0323685071692382,0.0025));
#1350=CARTESIAN_POINT('',(0.0614636686474338,-0.0251263149420096,0.0025));
#1351=CARTESIAN_POINT('',(0.037045052580573,-0.0295011785025295,0.0025));
#1352=CARTESIAN_POINT('',(0.037045052580573,-0.0295011785025295,0.));
#1353=CARTESIAN_POINT('',(0.0370528913294381,-0.032501168261516,0.));
#1354=CARTESIAN_POINT('',(0.0370528913294381,-0.032501168261516,0.0025));
#1355=CARTESIAN_POINT('',(0.0370528913294381,-0.032501168261516,0.0025));
#1356=CARTESIAN_POINT('',(0.037045052580573,-0.0295011785025295,0.0025));
#1357=CARTESIAN_POINT('',(0.00067532867377651,-0.0325962201119832,0.0025));
#1358=CARTESIAN_POINT('',(0.00067532867377651,-0.0325962201119832,0.));
#1359=CARTESIAN_POINT('',(-0.0357022339818851,-0.0326912719624503,0.));
#1360=CARTESIAN_POINT('',(-0.0357022339818851,-0.0326912719624503,0.0025));
#1361=CARTESIAN_POINT('',(-0.0357022339818851,-0.0326912719624503,0.0025));
#1362=CARTESIAN_POINT('',(0.00067532867377651,-0.0325962201119832,0.0025));
#1363=CARTESIAN_POINT('',(-0.0357100727307499,-0.0296912822034649,0.0025));
#1364=CARTESIAN_POINT('',(-0.0357100727307499,-0.0296912822034649,0.));
#1365=CARTESIAN_POINT('',(-0.0365342361144421,-0.0325758540463876,0.));
#1366=CARTESIAN_POINT('',(-0.0365342361144421,-0.0325758540463876,0.0025));
#1367=CARTESIAN_POINT('',(-0.0365342361144421,-0.0325758540463876,0.0025));
#1368=CARTESIAN_POINT('',(-0.0357100727307499,-0.0296912822034649,0.0025));
#1369=CARTESIAN_POINT('',(-0.0871498626383994,-0.0181142464681141,0.0025));
#1370=CARTESIAN_POINT('',(-0.0871498626383994,-0.0181142464681141,0.));
#1371=CARTESIAN_POINT('',(-0.0892997252767987,-0.0175,0.));
#1372=CARTESIAN_POINT('',(-0.0892997252767987,-0.0175,0.0025));
#1373=CARTESIAN_POINT('',(-0.0892997252767987,-0.0175,0.0025));
#1374=CARTESIAN_POINT('',(-0.0871498626383994,-0.0181142464681141,0.0025));
#1375=CARTESIAN_POINT('',(-0.0896498626383994,-0.0175,0.0025));
#1376=CARTESIAN_POINT('',(-0.0896498626383994,-0.0175,0.));
#1377=CARTESIAN_POINT('',(-0.09,-0.0175,0.));
#1378=CARTESIAN_POINT('',(-0.09,-0.0175,0.0025));
#1379=CARTESIAN_POINT('',(-0.09,-0.0175,0.0025));
#1380=CARTESIAN_POINT('',(-0.0896498626383994,-0.0175,0.0025));
#1381=CARTESIAN_POINT('',(-0.09,-0.0173999607538284,0.0025));
#1382=CARTESIAN_POINT('',(-0.09,-0.0173999607538284,0.));
#1383=CARTESIAN_POINT('',(-0.09,-0.0172999215076568,0.));
#1384=CARTESIAN_POINT('',(-0.09,-0.0172999215076568,0.0025));
#1385=CARTESIAN_POINT('',(-0.09,-0.0172999215076568,0.0025));
#1386=CARTESIAN_POINT('',(-0.09,-0.0173999607538284,0.0025));
#1387=CARTESIAN_POINT('',(-0.0951620816918461,-0.0158250410242722,0.0025));
#1388=CARTESIAN_POINT('',(-0.0951620816918461,-0.0158250410242722,0.));
#1389=CARTESIAN_POINT('',(-0.100324163383692,-0.0143501605408876,0.));
#1390=CARTESIAN_POINT('',(-0.100324163383692,-0.0143501605408876,0.0025));
#1391=CARTESIAN_POINT('',(-0.100324163383692,-0.0143501605408876,0.0025));
#1392=CARTESIAN_POINT('',(-0.0951620816918461,-0.0158250410242722,0.0025));
#1393=CARTESIAN_POINT('',(-0.0995,-0.0114655886979651,0.0025));
#1394=CARTESIAN_POINT('',(-0.0995,-0.0114655886979651,0.));
#1395=CARTESIAN_POINT('',(-0.1025,-0.0114655886979651,0.));
#1396=CARTESIAN_POINT('',(-0.1025,-0.0114655886979651,0.0025));
#1397=CARTESIAN_POINT('',(-0.1025,-0.0114655886979651,0.0025));
#1398=CARTESIAN_POINT('',(-0.0995,-0.0114655886979651,0.0025));
#1399=CARTESIAN_POINT('',(-0.1025,0.00901720565101742,0.0025));
#1400=CARTESIAN_POINT('',(-0.1025,0.00901720565101742,0.));
#1401=CARTESIAN_POINT('',(-0.1025,0.0295,0.));
#1402=CARTESIAN_POINT('',(-0.1025,0.0295,0.0025));
#1403=CARTESIAN_POINT('',(-0.1025,0.0295,0.0025));
#1404=CARTESIAN_POINT('',(-0.1025,0.00901720565101742,0.0025));
#1405=CARTESIAN_POINT('',(0.0935,0.0375,0.0025));
#1406=CARTESIAN_POINT('',(0.0935,0.0375,0.0025));
#1407=CARTESIAN_POINT('',(0.0965,0.0375,0.0025));
#1408=CARTESIAN_POINT('',(0.0935,0.0375,-0.0025));
#1409=CARTESIAN_POINT('',(0.0965,0.0375,-0.0025));
#1410=CARTESIAN_POINT('',(-0.0375,0.0375,0.0025));
#1411=CARTESIAN_POINT('',(-0.0375,0.0375,0.0025));
#1412=CARTESIAN_POINT('',(-0.0355,0.0375,0.0025));
#1413=CARTESIAN_POINT('',(-0.0375,0.0375,0.));
#1414=CARTESIAN_POINT('',(-0.0355,0.0375,0.));
#1415=CARTESIAN_POINT('',(0.0375,0.0375,0.0025));
#1416=CARTESIAN_POINT('',(0.0375,0.0375,0.0025));
#1417=CARTESIAN_POINT('',(0.0395,0.0375,0.0025));
#1418=CARTESIAN_POINT('',(0.0375,0.0375,0.));
#1419=CARTESIAN_POINT('',(0.0395,0.0375,0.));
#1420=CARTESIAN_POINT('',(0.0935,-0.0205,0.0025));
#1421=CARTESIAN_POINT('',(0.0935,-0.0205,0.0025));
#1422=CARTESIAN_POINT('',(0.0965,-0.0205,0.0025));
#1423=CARTESIAN_POINT('',(0.0935,-0.0205,-0.0025));
#1424=CARTESIAN_POINT('',(0.0965,-0.0205,-0.0025));
#1425=CARTESIAN_POINT('',(0.0375,-0.0375,0.0025));
#1426=CARTESIAN_POINT('',(0.0375,-0.0375,0.0025));
#1427=CARTESIAN_POINT('',(0.0395,-0.0375,0.0025));
#1428=CARTESIAN_POINT('',(0.0375,-0.0375,0.));
#1429=CARTESIAN_POINT('',(0.0395,-0.0375,0.));
#1430=CARTESIAN_POINT('',(-0.0375,-0.0375,0.0025));
#1431=CARTESIAN_POINT('',(-0.0375,-0.0375,0.0025));
#1432=CARTESIAN_POINT('',(-0.0355,-0.0375,0.0025));
#1433=CARTESIAN_POINT('',(-0.0375,-0.0375,0.));
#1434=CARTESIAN_POINT('',(-0.0355,-0.0375,0.));
#1435=CARTESIAN_POINT('',(-0.1075,0.0375,0.0025));
#1436=CARTESIAN_POINT('',(-0.1075,0.0375,0.0025));
#1437=CARTESIAN_POINT('',(-0.1045,0.0375,0.0025));
#1438=CARTESIAN_POINT('',(-0.1075,0.0375,-0.0025));
#1439=CARTESIAN_POINT('',(-0.1045,0.0375,-0.0025));
#1440=CARTESIAN_POINT('',(0.0935,0.0375,0.0025));
#1441=CARTESIAN_POINT('',(0.0935,0.0375,-0.0015));
#1442=CARTESIAN_POINT('',(0.0935,0.0375,0.0025));
#1443=CARTESIAN_POINT('',(0.0935,0.0375,-0.0025));
#1444=CARTESIAN_POINT('',(0.0985,0.0375,-0.0025));
#1445=CARTESIAN_POINT('',(-0.0995,0.0295,0.0025));
#1446=CARTESIAN_POINT('',(-0.0995,0.0295,0.));
#1447=CARTESIAN_POINT('',(-0.0995,0.0295,0.0025));
#1448=CARTESIAN_POINT('',(-0.1075,-0.0175,0.0025));
#1449=CARTESIAN_POINT('',(-0.1075,-0.0175,0.0025));
#1450=CARTESIAN_POINT('',(-0.1045,-0.0175,0.0025));
#1451=CARTESIAN_POINT('',(-0.1075,-0.0175,-0.0025));
#1452=CARTESIAN_POINT('',(-0.1045,-0.0175,-0.0025));
#1453=CARTESIAN_POINT('',(-0.007,0.,0.0025));
#1454=CARTESIAN_POINT('',(-0.007,0.,0.));
#1455=CARTESIAN_POINT('',(-0.1075,-0.0175,0.));
#1456=CARTESIAN_POINT('',(-0.1075,0.0375,0.));
#1457=CARTESIAN_POINT('',(0.0935,0.0375,0.));
#1458=CARTESIAN_POINT('',(0.0935,-0.0205,0.));
#1459=CARTESIAN_POINT('',(-0.007,-1.38777878078145E-17,-0.0025));
#1460=CARTESIAN_POINT('',(-0.007,-1.38777878078145E-17,-0.0025));
#1461=CARTESIAN_POINT('',(-0.007,-1.38777878078145E-17,-0.0025));
#1462=CARTESIAN_POINT('',(-0.007,-1.38777878078145E-17,-0.0025));
#1463=CARTESIAN_POINT('',(-0.1075,-0.0175,-0.0015));
#1464=CARTESIAN_POINT('',(-0.1075,0.0375,-0.0015));
#1465=CARTESIAN_POINT('',(0.0935,0.0375,-0.0015));
#1466=CARTESIAN_POINT('',(0.0935,-0.0205,-0.0015));
#1467=MECHANICAL_DESIGN_GEOMETRIC_PRESENTATION_REPRESENTATION('',(#844),
#1468);
#1468=(
GEOMETRIC_REPRESENTATION_CONTEXT(3)
GLOBAL_UNCERTAINTY_ASSIGNED_CONTEXT((#1469))
GLOBAL_UNIT_ASSIGNED_CONTEXT((#1472,#1471,#1470))
REPRESENTATION_CONTEXT('Part 1','TOP_LEVEL_ASSEMBLY_PART')
);
#1469=UNCERTAINTY_MEASURE_WITH_UNIT(LENGTH_MEASURE(2.E-5),#1472,
'DISTANCE_ACCURACY_VALUE','Maximum Tolerance applied to model');
#1470=(
NAMED_UNIT(*)
SI_UNIT($,.STERADIAN.)
SOLID_ANGLE_UNIT()
);
#1471=(
NAMED_UNIT(*)
PLANE_ANGLE_UNIT()
SI_UNIT($,.RADIAN.)
);
#1472=(
LENGTH_UNIT()
NAMED_UNIT(*)
SI_UNIT($,.METRE.)
);
#1473=PRODUCT_DEFINITION_SHAPE('','',#1474);
#1474=PRODUCT_DEFINITION('','',#1476,#1475);
#1475=PRODUCT_DEFINITION_CONTEXT('',#1482,'design');
#1476=PRODUCT_DEFINITION_FORMATION_WITH_SPECIFIED_SOURCE('','',#1478,
 .NOT_KNOWN.);
#1477=PRODUCT_RELATED_PRODUCT_CATEGORY('','',(#1478));
#1478=PRODUCT('Part 1','Part 1','Part 1',(#1480));
#1479=PRODUCT_CATEGORY('','');
#1480=PRODUCT_CONTEXT('',#1482,'mechanical');
#1481=APPLICATION_PROTOCOL_DEFINITION('international standard',
'ap242_managed_model_based_3d_engineering',2011,#1482);
#1482=APPLICATION_CONTEXT('managed model based 3d engineering');
ENDSEC;
END-ISO-10303-21;
